name Walk1.mot
datacolumns 19
datarows 12
range 0.97500000 1.03000000
endheader

                time	   L_ground_force_vx	   L_ground_force_vy	   L_ground_force_vz	   L_ground_force_px	   L_ground_force_py	   L_ground_force_pz	   R_ground_force_vx	   R_ground_force_vy	   R_ground_force_vz	   R_ground_force_px	   R_ground_force_py	   R_ground_force_pz	   L_ground_torque_x	   L_ground_torque_y	   L_ground_torque_z	   R_ground_torque_x	   R_ground_torque_y	   R_ground_torque_z	
          0.97500000	        -11.15452997	        145.12276543	         -7.68994212	         -0.04478433	          0.00000000	         -0.02681019	          0.00000001	         -0.00000006	         -0.00000000	         -0.00000000	          0.00000000	          0.00000000	          0.00000000	          0.31462861	          0.00000000	          0.00000000	         -0.00000000	          0.00000000	
          0.98000000	        -16.70633194	        194.93214658	         -9.57803979	         -0.09028458	          0.00000000	         -0.03844068	          0.00000001	         -0.00000001	          0.00000000	          0.00000000	          0.00000000	          0.00000000	          0.00000000	          0.48154028	          0.00000000	          0.00000000	         -0.00000000	          0.00000000	
          0.98500000	        -22.94131314	        245.55948632	        -11.25298683	         -0.13040294	          0.00000000	         -0.04943074	          0.00000001	          0.00000006	          0.00000001	          0.00000000	          0.00000000	          0.00000000	          0.00000000	          0.65411329	          0.00000000	          0.00000000	         -0.00000000	          0.00000000	
          0.99000000	        -29.66651685	        293.60010178	        -12.44530186	         -0.16372764	          0.00000000	         -0.05920053	          0.00000001	          0.00000016	          0.00000002	          0.00000000	          0.00000000	          0.00000000	          0.00000000	          0.82542658	          0.00000000	          0.00000000	         -0.00000000	          0.00000000	
          0.99500000	        -36.67156281	        336.70958916	        -12.87164928	         -0.18987859	          0.00000000	         -0.06747595	          0.00000001	          0.00000030	          0.00000003	          0.00000000	          0.00000000	          0.00000000	          0.00000000	          0.99007262	          0.00000000	          0.00000000	         -0.00000000	          0.00000000	
          1.00000000	        -43.73053431	        373.79659402	        -12.32039657	         -0.20916870	          0.00000000	         -0.07420938	          0.00000000	          0.00000049	          0.00000004	          0.00000000	          0.00000000	          0.00000000	          0.00000000	          1.14357779	          0.00000000	          0.00000000	         -0.00000000	          0.00000000	
          1.00500000	        -50.64218823	        404.83392426	        -10.70918165	         -0.22232466	          0.00000000	         -0.07949990	         -0.00000001	          0.00000072	          0.00000006	          0.00000000	          0.00000000	          0.00000000	          0.00000000	          1.28209957	          0.00000000	          0.00000000	         -0.00000000	          0.00000000	
          1.01000000	        -57.31634963	        430.75994662	         -8.07824729	         -0.23027795	          0.00000000	         -0.08353205	         -0.00000003	          0.00000099	          0.00000008	          0.00000000	          0.00000000	          0.00000000	          0.00000000	          1.40241869	          0.00000000	          0.00000000	         -0.00000000	          0.00000000	
          1.01500000	        -63.82043003	        453.16071792	         -4.55529990	         -0.23401665	          0.00000000	         -0.08652802	         -0.00000005	          0.00000128	          0.00000009	          0.00000000	          0.00000000	          0.00000000	          0.00000000	          1.50202139	          0.00000000	          0.00000000	         -0.00000000	          0.00000000	
          1.02000000	        -70.32467803	        473.83740613	         -0.31669448	         -0.23449125	          0.00000000	         -0.08871126	         -0.00000008	          0.00000159	          0.00000011	          0.00000000	          0.00000000	          0.00000000	          0.00000000	          1.57916112	          0.00000000	          0.00000000	          0.00000000	          0.00000000	
          1.02500000	        -76.97646989	        494.41552351	          4.44177802	         -0.23256582	          0.00000000	         -0.09028248	         -0.00000011	          0.00000186	          0.00000013	          0.00000000	          0.00000000	          0.00000000	          0.00000000	          1.63310821	          0.00000000	          0.00000000	          0.00000000	          0.00000000	
          1.03000000	        -83.77939952	        516.04922559	          9.52096508	         -0.22899863	          0.00000000	         -0.09140772	         -0.00000015	          0.00000207	          0.00000014	          0.00000000	          0.00000000	          0.00000000	          0.00000000	          1.66427621	          0.00000000	          0.00000000	          0.00000001	          0.00000000	
